Music_AnicomCredits:
	channel_count 4
	channel 1, Music_AnicomCredits_Ch1
	channel 2, Music_AnicomCredits_Ch2
	channel 3, Music_AnicomCredits_Ch3
	channel 4, Music_AnicomCredits_Ch4

Music_AnicomCredits_Ch1:
_chan = 1
	tempo 224
	volume 7
.mainloop:
	staccato -1
	duty_sequence 0
	pitch_inc_switch
	vibrato 0, 0, 0
	note_type 8, 7, 7
	octave 3
	note D#, 10
	octave 2
	note F#, 6
	octave 3
	note E_, 6
	octave 2
	note B_, 10
	octave 3
	note D#, 16
	duty_cycle 2
	octave 4
	note F#, 16
	duty_sequence 0
	octave 3
	note D#, 10
	octave 2
	note F#, 6
	octave 3
	note E_, 6
	note F#, 6
	note E_, 4
	note D#, 16
	duty_cycle 2
	octave 4
	note F#, 16
	duty_sequence 0
	sound_call .sub1
	note G#, 6
	note F#, 4
	octave 2
	note G#, 2
	octave 3
	note E_, 2
	note D#, 2
	toggle_tie_slur
	note D#, 8
	toggle_tie_slur
	octave 2
	note B_, 2
	octave 3
	note C#, 2
	note D#, 2
	note E_, 2
	note D#, 4
	octave 2
	note B_, 2
	note F#, 4
	octave 3
	note F#, 2
	note F#, 2
	note A#, 2
	note B_, 6
	octave 2
	note B_, 6
	note B_, 2
	octave 3
	note F#, 2
	note G#, 6
	note B_, 4
	octave 4
	note C#, 2
	octave 3
	note F#, 2
	note B_, 2
	toggle_tie_slur
	note B_, 6
	toggle_tie_slur
	octave 2
	note F#, 2
	note B_, 2
	octave 3
	note C#, 4
	note F#, 2
	note C#, 8
	note C#, 4
	note B_, 2
	note A#, 2
	note G#, 6
	note E_, 2
	note G#, 4
	note E_, 2
	note G#, 2
	note A#, 4
	note G#, 2
	note F#, 4
	note G#, 2
	note F#, 2
	note E_, 2
	note B_, 6
	octave 2
	note B_, 4
	octave 3
	note F#, 2
	note D#, 2
	note C#, 2
	octave 2
	note B_, 2
	octave 3
	note E_, 2
	note F#, 4
	note F#, 8
	note B_, 6
	note F#, 2
	note B_, 2
	octave 4
	note D#, 4
	octave 3
	note B_, 2
	note A#, 8
	note A#, 2
	note F#, 2
	note E_, 2
	note D#, 2
	sound_call .sub2
	note D#, 8
	note D#, 8
	sound_call .sub1
	note G#, 4
	duty_cycle 0
	volume_envelope 7, 8
	octave 2
	note F#, 4
	note B_, 4
	octave 3
	note C#, 4
	vibrato 14, 4, 4
	note D#, 8
	duty_sequence 0
	vibrato 0, 0, 0
	volume_envelope 7, 7
	octave 2
	note B_, 2
	octave 3
	note C#, 2
	note D#, 2
	note E_, 2
	note D#, 4
	octave 2
	note B_, 2
	note F#, 4
	duty_cycle 0
	volume_envelope 7, 8
	note B_, 2
	octave 3
	note D#, 2
	note F#, 2
	vibrato 11, 4, 4
	note_type 4, 7, 8
	note A#, 1
	note B_, 11
	duty_sequence 0
	vibrato 0, 0, 0
	note_type 8, 7, 7
	octave 2
	note B_, 6
	note B_, 2
	octave 3
	note F#, 2
	note G#, 4
	duty_cycle 0
	volume_envelope 7, 8
	octave 2
	note F#, 4
	note B_, 4
	octave 3
	note F#, 4
	vibrato 14, 4, 4
	octave 2
	note B_, 6
	duty_sequence 0
	vibrato 0, 0, 0
	volume_envelope 7, 7
	octave 2
	note F#, 2
	note B_, 2
	octave 3
	note C#, 4
	note F#, 2
	note C#, 8
	duty_cycle 0
	volume_envelope 7, 8
	note C#, 4
	note F#, 4
	vibrato 11, 4, 4
	note_type 4, 7, 8
	note G_, 1
	note G#, 1
	note_type 8, 7, 8
	note G#, 15
	vibrato 14, 4, 4
	note A#, 16
	note B_, 6
	duty_sequence 0
	vibrato 0, 0, 0
	volume_envelope 7, 7
	octave 2
	note B_, 4
	octave 3
	note F#, 2
	note D#, 2
	note C#, 2
	octave 2
	note B_, 2
	octave 3
	note E_, 2
	note F#, 4
	duty_cycle 0
	volume_envelope 7, 8
	note F#, 8
	note_type 4, 7, 8
	note A#, 1
	note B_, 15
	octave 4
	note D#, 16
	octave 3
	note A#, 16
	octave 4
	note C#, 8
	duty_sequence 0
	note_type 8, 7, 7
	octave 3
	note E_, 2
	note D#, 2
	sound_call .sub2
	note D#, 8
	note D#, 4
	note C#, 4
.loop1:
	staccato 108
	duty_cycle 0
	vibrato 14, 4, 4
	volume_envelope 7, 8
	note F#, 16
	staccato -1
	vibrato 11, 4, 4
	note_type 4, 7, 8
	note G_, 1
	note_type 8, 7, 8
	note G#, 13
	note_type 4, 7, 8
	rest 5
	sound_call .sub3
	staccato 94
	vibrato 14, 4, 4
	note_type 8, 7, 8
	note A#, 16
	sound_loop 2, .loop1
	staccato -1
	vibrato 11, 4, 4
	note_type 4, 7, 8
	note F_, 1
	note_type 8, 7, 8
	note F#, 15
	note_type 4, 7, 8
	rest 1
	vibrato 14, 4, 4
	note B_, 15
	rest 1
	note E_, 15
	rest 1
	vibrato 11, 4, 4
	note D_, 1
	note D#, 14
	rest 1
	vibrato 14, 4, 4
	note F#, 15
	rest 1
	vibrato 11, 4, 4
	note G_, 1
	note G#, 14
	rest 1
	vibrato 14, 4, 4
	note E_, 15
	rest 1
	sound_call .sub3
	vibrato 14, 4, 4
	note A#, 15
	rest 1
	note F#, 15
	rest 1
	sound_jump .mainloop

.sub1:
	octave 3
	note F#, 2
	octave 2
	note F#, 2
	note B_, 2
	octave 3
	note B_, 6
	octave 2
	note B_, 2
	octave 3
	note F#, 2
	sound_ret

.sub2:
	toggle_tie_slur
	note D#, 2
	toggle_tie_slur
	octave 2
	note F#, 2
	note B_, 2
	octave 3
	note D#, 4
	octave 2
	note B_, 2
	octave 3
	note D#, 2
	note F#, 2
	sound_ret

.sub3:
	vibrato 11, 4, 4
	note_type 4, 7, 8
	note A#, 1
	note_type 8, 7, 8
	note B_, 15
	note_type 4, 7, 8
	rest 1
	sound_ret

Music_AnicomCredits_Ch2:
_chan = 2
	duty_sequence 0
	staccato -1
	note_type 8, 7, 7
	octave 2
	note B_, 12
	note B_, 2
	octave 3
	note D#, 2
.mainloop:
	octave 2
	note G_, 10
	octave 3
	note E_, 2
	note D#, 2
	note C#, 2
	sound_call .sub1
	duty_sequence 0
	octave 2
	note B_, 12
	note B_, 2
	octave 3
	note D#, 2
	octave 2
	note G_, 6
	note A_, 6
	note G_, 4
	sound_call .sub1
	sound_call .sub2
	sound_call .sub3
	note C#, 4
	duty_cycle 2
	vibrato 11, 4, 4
	volume_envelope 10, 8
	octave 4
	note D#, 3
	rest 1
	note E_, 3
	rest 1
	sound_call .sub4
	octave 3
	note B_, 11
	rest 1
	note F#, 3
	rest 1
	octave 4
	note D#, 3
	rest 1
	note E_, 4
	note D#, 3
	rest 1
	vibrato 14, 4, 4
	note C#, 4
	note_type 8, 10, 8
	toggle_tie_slur
	note C#, 16
	sound_call .sub5
	octave 4
	note D#, 4
	note C#, 3
	rest 1
	sound_call .sub6
	sound_call .sub7
	octave 2
	note F#, 4
	duty_cycle 2
	note_type 4, 10, 8
	octave 3
	note B_, 3
	rest 1
	octave 4
	note C#, 3
	rest 1
	sound_call .sub2
	sound_call .sub3
	duty_cycle 2
	vibrato 11, 4, 4
	volume_envelope 10, 8
	octave 4
	note C#, 3
	rest 1
	note D#, 3
	rest 1
	note E_, 3
	rest 1
	sound_call .sub4
	octave 3
	note B_, 11
	rest 1
	octave 4
	note D#, 7
	rest 1
	note E_, 3
	rest 1
	note D#, 3
	rest 1
	vibrato 14, 4, 4
	note C#, 4
	note_type 8, 10, 8
	toggle_tie_slur
	note C#, 16
	sound_call .sub5
	octave 4
	note D#, 3
	rest 1
	note C#, 3
	rest 1
	sound_call .sub6
	sound_call .sub7
	octave 2
	note F#, 2
	duty_cycle 1
	vibrato 11, 4, 4
	note_type 4, 10, 8
	octave 3
	note F#, 3
	rest 1
	note G#, 3
	rest 1
	note A#, 3
	rest 1
	note A#, 1
	note_type 8, 10, 8
	note B_, 11
	vibrato 0, 0, 0
	note_type 4, 10, 8
	rest 1
	octave 4
	note C#, 7
	rest 1
	staccato 66
	vibrato 14, 4, 4
	note_type 8, 10, 8
	octave 3
	note B_, 10
	vibrato 0, 0, 0
	note_type 4, 10, 8
	note F#, 3
	rest 1
	note B_, 3
	rest 1
	octave 4
	note C#, 3
	rest 1
	note D_, 1
	note D#, 6
	rest 1
	octave 3
	note B_, 3
	rest 1
	octave 4
	note D#, 7
	rest 1
	note F#, 7
	rest 1
	vibrato 14, 4, 4
	note C#, 4
	toggle_tie_slur
	note C#, 15
	toggle_tie_slur
	rest 5
	vibrato 11, 4, 4
	octave 3
	note A#, 3
	rest 1
	note B_, 3
	rest 1
	octave 4
	note C#, 3
	rest 1
	note D_, 1
	note D#, 14
	rest 5
	octave 3
	note B_, 3
	rest 1
	octave 4
	note D#, 3
	rest 1
	note D#, 1
	note E_, 3
	toggle_tie_slur
	note E_, 11
	toggle_tie_slur
	rest 1
	vibrato 14, 4, 4
	note_type 8, 10, 8
	octave 3
	note B_, 10
	vibrato 0, 0, 0
	note_type 4, 10, 8
	octave 4
	note F_, 1
	note_type 8, 10, 8
	note F#, 9
	note_type 4, 10, 8
	rest 1
	note F#, 3
	rest 1
	note G#, 3
	rest 1
	vibrato 14, 4, 4
	note F#, 4
	toggle_tie_slur
	note F#, 15
	toggle_tie_slur
	rest 9
	duty_cycle 2
	vibrato 11, 4, 4
	octave 3
	note B_, 3
	rest 1
	octave 4
	note C#, 3
	rest 1
	note D_, 1
	note D#, 14
	rest 5
	vibrato 0, 0, 0
	octave 3
	note F#, 3
	rest 1
	note B_, 3
	rest 1
	octave 4
	note D#, 3
	rest 1
	note E_, 11
	rest 1
	octave 3
	note B_, 11
	rest 1
	octave 4
	note C#, 3
	rest 1
	staccato 122
	vibrato 14, 4, 4
	octave 3
	note B_, 4
	note_type 8, 10, 8
	toggle_tie_slur
	note B_, 16
	duty_cycle 0
	note_type 4, 7, 8
	toggle_tie_slur
	note B_, 15
	rest 1
	octave 4
	note C#, 8
	duty_cycle 2
	vibrato 0, 0, 0
	volume_envelope 10, 8
	octave 3
	note B_, 7
	rest 1
	octave 4
	note D_, 1
	vibrato 11, 4, 4
	note_type 8, 10, 8
	note D#, 9
	vibrato 0, 0, 0
	note_type 4, 10, 8
	rest 5
	octave 4
	note F#, 7
	rest 1
	staccato 66
	vibrato 14, 4, 4
	note_type 8, 10, 8
	note C#, 10
	note_type 4, 10, 8
	octave 3
	note F#, 3
	rest 1
	note A_, 1
	note A#, 2
	rest 1
	staccato 94
	note B_, 4
	note_type 8, 10, 8
	toggle_tie_slur
	note B_, 12
	duty_sequence 0
	staccato -1
	vibrato 0, 0, 0
	volume_envelope 7, 7
	toggle_tie_slur
	octave 2
	note B_, 2
	octave 3
	note D#, 2
	sound_jump .mainloop

.sub1:
	octave 2
	note F#, 16
	duty_cycle 2
	note_type 4, 7, 7
	rest 1
	octave 4
	note B_, 1
	note_type 8, 7, 7
	octave 5
	note D#, 15
	sound_ret

.sub2:
	staccato 108
	duty_cycle 2
	vibrato 11, 4, 4
	note_type 4, 10, 8
	octave 4
	note D_, 1
	note D#, 15
	duty_sequence 0
	vibrato 0, 0, 0
	volume_envelope 7, 7
	octave 3
	note D#, 8
	duty_cycle 2
	vibrato 11, 4, 4
	volume_envelope 10, 8
	note B_, 3
	rest 1
	octave 4
	note D#, 3
	rest 1
	note D#, 1
	note E_, 10
	rest 1
	vibrato 14, 4, 4
	octave 3
	note B_, 11
	rest 1
	note G#, 3
	rest 1
	staccato 122
	note F#, 4
	note_type 8, 10, 8
	toggle_tie_slur
	note F#, 16
	sound_ret

.sub3:
	duty_sequence 0
	vibrato 0, 0, 0
	note_type 4, 7, 7
	toggle_tie_slur
	note F#, 12
	note D#, 8
	sound_ret

.sub4:
	note F_, 1
	note F#, 10
	rest 1
	duty_sequence 0
	vibrato 0, 0, 0
	volume_envelope 7, 7
	octave 3
	note F#, 8
	duty_cycle 2
	volume_envelope 10, 8
	octave 4
	note F#, 3
	rest 1
	note E_, 3
	rest 1
	note D#, 3
	rest 1
	sound_ret

.sub5:
	duty_sequence 0
	vibrato 0, 0, 0
	volume_envelope 7, 7
	toggle_tie_slur
	octave 2
	note A#, 10
	octave 3
	note F#, 2
	duty_cycle 2
	vibrato 14, 4, 4
	note_type 4, 10, 8
	sound_ret

.sub6:
	octave 3
	note B_, 15
	rest 1
	duty_sequence 0
	vibrato 0, 0, 0
	volume_envelope 7, 7
	note B_, 4
	duty_cycle 2
	volume_envelope 10, 8
	note E_, 3
	rest 1
	note G#, 3
	rest 1
	note B_, 3
	rest 1
	octave 4
	note C#, 7
	rest 1
	octave 3
	note B_, 3
	rest 1
	note A#, 7
	rest 1
	note B_, 11
	rest 1
	vibrato 11, 4, 4
	octave 4
	note F_, 1
	note F#, 14
	rest 1
	duty_sequence 0
	vibrato 0, 0, 0
	volume_envelope 7, 7
	octave 3
	note F#, 4
	duty_cycle 2
	vibrato 11, 4, 4
	volume_envelope 10, 8
	octave 4
	note D#, 3
	rest 1
	note F#, 3
	rest 1
	note G_, 1
	note G#, 3
	toggle_tie_slur
	note G#, 11
	toggle_tie_slur
	rest 1
	vibrato 14, 4, 4
	octave 3
	note B_, 15
	rest 1
	note B_, 3
	rest 1
	octave 4
	note D_, 1
	vibrato 11, 4, 4
	note_type 8, 10, 8
	note D#, 9
	note_type 4, 7, 7
	rest 1
	duty_sequence 0
	vibrato 0, 0, 0
	octave 3
	note F#, 4
	duty_cycle 2
	volume_envelope 10, 8
	octave 4
	note F#, 7
	rest 1
	staccato 66
	vibrato 14, 4, 4
	note_type 8, 10, 8
	note C#, 10
	note_type 4, 10, 8
	octave 3
	note F#, 3
	rest 1
	note A_, 1
	note A#, 2
	rest 1
	staccato 122
	note B_, 4
	note_type 8, 10, 8
	toggle_tie_slur
	note B_, 16
	sound_ret

.sub7:
	duty_sequence 0
	vibrato 0, 0, 0
	volume_envelope 7, 7
	toggle_tie_slur
	note B_, 8
	sound_ret

Music_AnicomCredits_Ch3:
_chan = 3
.mainloop:
.loop1:
	staccato 108
	vibrato 11, 4, 4
	note_type 8, 2, 27
	octave 2
	note B_, 16
	note E_, 16
	staccato 178
	note B_, 16
	toggle_tie_slur
	note B_, 10
	vibrato 0, 0, 0
	note_type 4, 2, 27
	toggle_tie_slur
	note B_, 1
	rest 3
	note F#, 3
	rest 1
	note F#, 1
	rest 3
	sound_loop 2, .loop1
	staccato -1
	sound_call .sub1
	note B_, 3
	rest 5
	note B_, 7
	rest 1
	octave 3
	note F#, 7
	rest 1
	note C#, 7
	rest 1
	sound_call .sub1
	note B_, 3
	rest 5
	note B_, 7
	rest 1
	octave 3
	note F#, 7
	rest 1
	note A_, 1
	note A#, 6
	rest 1
	sound_call .sub2
	note F#, 11
	rest 1
	octave 2
	note F#, 3
	rest 1
	octave 3
	note C#, 3
	rest 1
	note F#, 3
	rest 5
	note F#, 3
	rest 1
	sound_call .sub2
	note F#, 11
	rest 1
	note C#, 3
	rest 1
	note F#, 3
	rest 1
	note G#, 3
	rest 1
	note A#, 7
	rest 1
	note B_, 15
	rest 5
	note F#, 3
	rest 1
	note B_, 3
	rest 1
	note B_, 1
	rest 3
	note G#, 7
	rest 5
	note G#, 3
	rest 5
	note G#, 2
	rest 2
	note G#, 7
	rest 1
	note F#, 15
	rest 1
	note D#, 15
	rest 1
	note E_, 15
	rest 1
	note G_, 15
	rest 1
	note F#, 15
	rest 13
	note F#, 2
	rest 2
	note F#, 2
	rest 2
	note F#, 11
	rest 1
	rest 16
	sound_jump .mainloop

.sub1:
	note_type 4, 1, 29
	octave 2
	note B_, 15
	rest 5
	note F#, 3
	rest 1
	note B_, 3
	rest 1
	note B_, 1
	rest 3
	note B_, 7
	rest 5
	note B_, 3
	rest 5
	note B_, 2
	rest 2
	octave 3
	note C_, 1
	note C#, 6
	rest 1
	octave 2
	note B_, 15
	rest 1
	note B_, 1
	rest 3
	note B_, 1
	rest 3
	note B_, 3
	rest 1
	octave 3
	note F#, 3
	rest 1
	note A#, 1
	note B_, 10
	rest 1
	note F#, 7
	rest 1
	octave 2
	note A#, 3
	rest 1
	note B_, 3
	rest 1
	octave 3
	note C#, 3
	rest 1
	note D#, 15
	rest 5
	note D#, 1
	rest 3
	note F#, 3
	rest 1
	octave 2
	note B_, 1
	rest 3
	octave 3
	note E_, 11
	rest 1
	note E_, 1
	rest 3
	note E_, 7
	rest 1
	octave 2
	note B_, 7
	rest 1
	octave 3
	note F#, 15
	rest 5
	note C#, 1
	rest 3
	note F#, 3
	rest 1
	note C#, 3
	rest 1
	octave 2
	note F#, 11
	rest 1
	note F#, 7
	rest 1
	octave 3
	note C#, 3
	rest 1
	note D#, 7
	rest 1
	note E_, 15
	rest 9
	octave 2
	note B_, 1
	rest 3
	octave 3
	note E_, 3
	rest 1
	rest 4
	note E_, 11
	rest 9
	octave 2
	note B_, 3
	rest 1
	octave 3
	note E_, 3
	rest 1
	note D#, 15
	rest 1
	note D#, 2
	rest 2
	note D#, 7
	rest 1
	note D#, 2
	rest 2
	note E_, 11
	rest 1
	note E_, 7
	rest 1
	note E_, 2
	rest 2
	note G_, 1
	note G#, 6
	rest 1
	note F#, 15
	rest 5
	octave 2
	note B_, 2
	rest 2
	octave 3
	note D#, 2
	rest 2
	note F#, 2
	rest 2
	octave 2
	note F#, 2
	rest 2
	note F#, 11
	rest 5
	note F#, 2
	rest 2
	note G#, 2
	rest 2
	note A#, 2
	rest 2
	note B_, 15
	rest 9
	note B_, 3
	rest 5
	sound_ret

.sub2:
	note G#, 11
	rest 1
	note G#, 7
	rest 1
	note D#, 3
	rest 1
	note G#, 7
	rest 1
	note E_, 11
	rest 1
	octave 2
	note B_, 3
	rest 1
	octave 3
	note E_, 3
	rest 1
	note E_, 3
	rest 5
	note E_, 3
	rest 1
	note D#, 11
	rest 1
	note D#, 3
	rest 5
	octave 2
	note B_, 3
	rest 1
	octave 3
	note D_, 1
	note D#, 2
	rest 1
	note E_, 3
	rest 1
	sound_ret

Music_AnicomCredits_Ch4:
_chan = 4
	toggle_noise 10
.mainloop:
.loop1:
	drum_speed 8
	rest 16
	sound_loop 7, .loop1
	drum_speed 4
	rest 13
	drum_note 5, 1
	drum_note 4, 1
	drum_note 4, 1
	drum_note 3, 16
.loop2:
	drum_speed 8
	sound_call .sub1
	sound_call .sub2
	sound_call .sub1
	sound_call .sub3
	sound_call .sub1
	sound_call .sub2
	sound_call .sub1
	sound_call .sub3
	sound_call .sub1
	sound_call .sub2
	sound_call .sub1
	sound_call .sub3
	sound_call .sub1
	sound_call .sub2
	sound_call .sub1
	rest 4
	drum_note 2, 2
	drum_note 2, 2
	drum_note 3, 2
	drum_note 3, 2
	drum_note 2, 2
	drum_note 3, 2
	sound_loop 2, .loop2
	sound_call .sub1
	sound_call .sub2
	sound_call .sub1
	sound_call .sub3
	sound_call .sub1
	sound_call .sub2
	sound_call .sub1
	rest 4
	drum_note 2, 2
	drum_note 2, 2
	drum_note 3, 2
	drum_note 3, 2
	drum_note 2, 2
	drum_note 3, 2
	sound_call .sub1
	sound_call .sub2
	sound_call .sub1
	sound_call .sub3
	sound_call .sub1
	rest 4
	drum_note 2, 2
	drum_note 2, 2
	drum_note 3, 8
	sound_jump .mainloop

.sub1:
	drum_note 1, 4
	drum_note 2, 2
	drum_note 2, 2
	drum_note 3, 4
	drum_note 2, 2
	drum_note 2, 2
	sound_ret

.sub2:
	rest 4
	drum_note 2, 2
	drum_note 2, 2
	drum_note 3, 4
	drum_note 2, 2
	drum_note 2, 2
	sound_ret

.sub3:
	rest 4
	drum_note 2, 2
	drum_note 2, 2
	drum_note 3, 2
	drum_note 1, 2
	drum_note 2, 2
	drum_note 2, 2
	sound_ret
