HRM_FinalBattle:
	channel_count 3
	channel 1, HRM_FinalBattle_Ch1
	channel 2, HRM_FinalBattle_Ch2
	channel 3, HRM_FinalBattle_Ch3

HRM_FinalBattle_Ch1:
_chan = 1
	tempo 116
	volume 7
	duty_cycle 3
	vibrato 6, 3, 4
	toggle_perfect_pitch
	transpose 0, 2
	note_type 12, 11, 2
	octave 3
	note F#, 1
	note F_, 1
	note F#, 1
	note G_, 1
	note F#, 1
	note G_, 1
	note G#, 1
	note G_, 1
	note_type 12, 10, 2
	note G#, 1
	note A_, 1
	note G#, 1
	note A_, 1
	note A#, 1
	note A_, 1
	note A#, 1
	note B_, 1
	note_type 12, 9, 2
	note A#, 1
	note B_, 1
	octave 4
	note C_, 1
	octave 3
	note B_, 1
	octave 4
	note C_, 1
	note C#, 1
	note C_, 1
	note C#, 1
	note_type 12, 8, 2
	note D_, 1
	note C#, 1
	note D_, 1
	note D#, 1
	note D_, 1
	note D#, 1
	note E_, 1
	note D#, 1
	note_type 12, 12, 1
	octave 3
	note E_, 1
	note E_, 7
	note F_, 1
	note F_, 7
	note G_, 1
	note G_, 7
	note F_, 1
	note F_, 7
	note E_, 1
	note E_, 7
	note F_, 1
	note F_, 7
	note G_, 1
	note G_, 7
	note G#, 1
	note G#, 3
	note D#, 4
	sound_call .sub1
	sound_call .sub2
	note F_, 1
	note F_, 3
	note_type 12, 11, 3
	note F_, 4
	sound_call .sub1
	sound_call .sub2
	note G#, 1
	note G#, 3
	note_type 12, 11, 7
	note D#, 4
.mainloop:
	sound_call .sub3
	note F_, 4
	note F#, 4
	note_type 12, 11, 1
	note F#, 2
	note F_, 1
	note F#, 1
	note A_, 1
	note F#, 2
	note F#, 1
	note_type 12, 11, 7
	octave 2
	note B_, 6
	note_type 12, 10, 0
	octave 3
	note D_, 6
	note_type 12, 11, 7
	note F#, 4
	sound_call .sub3
	note F_, 4
	note F#, 12
	note A#, 4
	note_type 12, 5, 14
	note B_, 12
	note_type 12, 11, 2
	note E_, 3
	note E_, 3
	note E_, 2
	note E_, 1
	note F#, 1
	note E_, 1
	note B_, 1
	note F#, 1
	note E_, 1
	note F#, 1
	note B_, 1
	note F#, 1
	note E_, 1
	note F#, 1
	note B_, 1
	note F#, 1
	note E_, 1
	note F#, 1
	note B_, 1
	note F#, 1
	note_type 12, 12, 2
	note E_, 1
	note F#, 1
	note B_, 1
	note F#, 1
	note_type 12, 13, 2
	note E_, 1
	note F#, 1
	note B_, 1
	note_type 12, 12, 1
	note E_, 1
	note E_, 7
	note E_, 1
	note E_, 7
	note E_, 1
	note E_, 7
	note E_, 1
	note E_, 7
	sound_call .sub4
	note E_, 3
	note_type 12, 11, 5
	note F_, 4
	sound_call .sub4
	note_type 12, 11, 7
	note E_, 7
	note_type 12, 12, 1
	note E_, 2
	note B_, 1
	note A_, 1
	note E_, 2
	note B_, 1
	note A_, 1
	note E_, 2
	note B_, 1
	note A_, 1
	note E_, 2
	note B_, 1
	note A_, 3
	note E_, 1
	note D_, 3
	note E_, 1
	note D_, 3
	note E_, 1
	note D_, 3
	note E_, 1
	note D_, 1
	note F_, 2
	octave 4
	note C_, 1
	octave 3
	note B_, 1
	note F_, 2
	octave 4
	note C_, 1
	octave 3
	note B_, 1
	note F_, 2
	octave 4
	note C_, 1
	octave 3
	note B_, 1
	note F_, 2
	octave 4
	note C_, 1
	octave 3
	note B_, 3
	note F_, 1
	note E_, 3
	note F_, 1
	note E_, 3
	note F_, 1
	note E_, 3
	note F_, 1
	note E_, 1
	note F#, 2
	octave 4
	note C#, 1
	note C_, 1
	octave 3
	note F#, 2
	octave 4
	note C#, 1
	note C_, 1
	octave 3
	note F#, 2
	octave 4
	note C#, 1
	note C_, 1
	octave 3
	note F#, 2
	octave 4
	note C#, 1
	note C_, 3
	octave 3
	note F#, 1
	note F_, 3
	note F#, 1
	note F_, 3
	note F#, 1
	note F_, 3
	note F#, 1
	note F_, 3
	note F#, 1
	note F_, 3
	note F#, 1
	note F_, 3
	note F#, 1
	note F_, 3
	note_type 12, 11, 7
	octave 4
	note C_, 2
	note_type 12, 11, 0
	note C#, 8
	note_type 12, 11, 7
	note C#, 8
	note_type 12, 10, 0
	octave 3
	note F#, 8
	note F#, 8
	note_type 12, 11, 0
	octave 3
	note A_, 8
	note_type 12, 11, 7
	note A_, 8
	note G_, 4
	note B_, 12
	note_type 12, 11, 0
	note A_, 8
	note_type 12, 11, 7
	note A_, 8
	note_type 12, 11, 0
	note E_, 8
	note_type 12, 11, 7
	note E_, 8
	note_type 12, 11, 0
	note A#, 8
	note_type 12, 11, 7
	note A#, 8
	octave 4
	note F_, 8
	octave 3
	note A#, 8
	octave 4
	note C#, 4
	note E_, 12
	octave 3
	note A_, 4
	octave 4
	note C#, 12
	note_type 12, 4, 0
	sound_call HRM_FinalBattle_Ch2.sub5
	sound_call HRM_FinalBattle_Ch2.sub5
	sound_call .sub3
	note F_, 4
	note F#, 12
	note_type 12, 11, 0
	note A_, 8
	note G_, 8
	sound_call .sub3
	note F_, 4
	note F#, 12
	note_type 12, 11, 0
	note A_, 8
	note_type 12, 11, 7
	octave 4
	note C_, 8
	note_type 12, 11, 0
	octave 3
	note B_, 8
	note_type 12, 11, 7
	note B_, 8
	note_type 12, 11, 0
	octave 4
	note E_, 8
	note_type 12, 11, 7
	note E_, 8
	sound_jump .mainloop

.sub1:
	note_type 12, 12, 1
	note E_, 1
	note E_, 3
	note_type 12, 11, 3
	note E_, 4
	note_type 12, 12, 1
	note F_, 1
	note F_, 3
	note_type 12, 11, 3
	note F_, 4
	sound_ret

.sub2:
	note_type 12, 12, 1
	note G_, 1
	note G_, 3
	note_type 12, 11, 3
	note G_, 4
	note_type 12, 12, 1
	sound_ret

.sub3:
	note_type 12, 11, 7
	octave 3
	note E_, 4
	note B_, 4
	note D#, 4
	note A#, 4
	note D_, 4
	note A_, 4
	octave 2
	note B_, 4
	octave 3
	note F#, 4
	sound_ret

.sub4:
	note_type 12, 12, 1
	note E_, 1
	note E_, 3
	note_type 12, 11, 5
	note D_, 4
	note_type 12, 12, 1
	note E_, 1
	sound_ret

HRM_FinalBattle_Ch2:
_chan = 2
	duty_cycle 3
	vibrato 8, 2, 5
	transpose 0, 2
	note_type 12, 12, 2
	octave 5
	note C_, 1
	octave 4
	note G#, 1
	note B_, 1
	note F#, 1
	note A_, 1
	note E_, 1
	note G_, 1
	octave 5
	note C_, 1
	octave 4
	note F_, 1
	note C#, 1
	note E_, 1
	note C_, 1
	note D#, 1
	octave 3
	note B_, 1
	octave 4
	note D_, 1
	octave 5
	note C_, 1
	octave 4
	note C_, 1
	octave 3
	note G#, 1
	note B_, 1
	note F#, 1
	note A#, 1
	note F_, 1
	note A_, 1
	octave 5
	note C_, 1
	octave 3
	note G#, 1
	note D#, 1
	note G_, 1
	note D_, 1
	note F_, 1
	note C#, 1
	note E_, 1
	octave 5
	note C_, 1
	note_type 12, 12, 1
	octave 4
	note E_, 1
	note E_, 7
	note E_, 1
	note E_, 7
	note E_, 1
	note E_, 7
	note E_, 1
	note E_, 7
	sound_call .sub2
	octave 5
	note E_, 4
	sound_call .sub2
	octave 5
	note E_, 4
	sound_call .sub2
	octave 5
	note E_, 4
	sound_call .sub2
	note D#, 4
	sound_call .sub1
	sound_call .sub1
	sound_call .sub1
	sound_call .sub1
	sound_call .sub1
	sound_call .sub1
	sound_call .sub1
	note_type 12, 12, 1
	octave 4
	note E_, 1
	note E_, 3
	note_type 12, 4, 10
	octave 3
	note G#, 4
.mainloop:
	sound_call .sub3
	note_type 12, 13, 7
	note A#, 4
	note B_, 12
	note_type 12, 11, 1
	note F_, 2
	note F#, 3
	note A_, 1
	note B_, 1
	note A_, 1
	octave 4
	note C_, 1
	octave 3
	note B_, 2
	note A_, 1
	note B_, 1
	note B_, 1
	note A_, 1
	note A#, 1
	sound_call .sub3
	note_type 12, 13, 7
	note A#, 4
	note B_, 12
	octave 4
	note D#, 4
	note E_, 12
	note_type 12, 10, 0
	octave 3
	note B_, 8
	octave 4
	note D_, 8
	note F_, 8
	note D_, 8
	sound_call .sub4
	octave 3
	note D_, 4
	sound_call .sub4
	octave 3
	note F_, 4
	sound_call .sub4
	octave 3
	note D_, 4
	note_type 12, 13, 1
	octave 4
	note E_, 1
	note E_, 1
	note_type 12, 12, 4
	octave 2
	note B_, 4
	octave 3
	note D_, 2
	note_type 12, 12, 2
	octave 4
	note E_, 1
	note E_, 1
	note D_, 1
	note E_, 1
	note F_, 1
	note E_, 1
	note D_, 1
	note F_, 1
	note E_, 1
	note E_, 1
	note F#, 1
	note F_, 1
	note E_, 1
	note D#, 1
	note E_, 1
	note F#, 1
	note E_, 1
	note E_, 1
	note F_, 1
	note E_, 1
	note D_, 1
	note C#, 1
	note D_, 1
	note D#, 1
	note E_, 1
	note E_, 1
	note_type 12, 12, 4
	octave 2
	note B_, 4
	octave 3
	note D_, 2
	note_type 12, 13, 7
	octave 4
	note E_, 4
	note F_, 2
	note F#, 12
	note_type 12, 12, 2
	octave 3
	note B_, 2
	note B_, 4
	note B_, 2
	note B_, 4
	note B_, 2
	note_type 12, 13, 7
	octave 4
	note F_, 4
	note F#, 2
	note G_, 12
	note_type 12, 12, 2
	note C_, 2
	note C_, 4
	note C_, 2
	note C_, 4
	note C_, 2
	note_type 12, 13, 7
	note F#, 4
	note G_, 2
	note G#, 12
	note_type 12, 8, 2
	note C#, 2
	note C#, 4
	note_type 12, 10, 2
	note C#, 2
	note C#, 4
	note C#, 4
	note_type 12, 13, 2
	note C#, 2
	note C#, 4
	note_type 12, 15, 2
	note C#, 2
	note C#, 4
	note_type 12, 12, 4
	note E_, 1
	note F_, 1
	note_type 12, 12, 0
	note F#, 12
	note_type 12, 12, 7
	note F#, 4
	note_type 12, 1, 15
	octave 3
	note F#, 8
	note_type 12, 9, 0
	note F#, 8
	note_type 12, 12, 7
	octave 4
	note C#, 4
	note_type 12, 12, 0
	note D_, 12
	note D_, 8
	note_type 12, 12, 7
	note D_, 8
	note_type 12, 12, 0
	note E_, 8
	note_type 12, 12, 7
	note E_, 8
	note_type 12, 12, 0
	octave 3
	note A_, 8
	note_type 12, 12, 7
	note A_, 8
	note_type 12, 12, 0
	octave 4
	note F_, 8
	note_type 12, 12, 7
	note F_, 8
	octave 5
	note C_, 8
	octave 4
	note A#, 8
	note_type 12, 12, 0
	note A_, 16
	note A_, 8
	note_type 12, 12, 7
	note A_, 8
	note_type 12, 12, 5
	sound_call .sub5
	note_type 12, 11, 1
	sound_call .sub5
	sound_call .sub3
	note A#, 4
	note B_, 12
	note_type 12, 12, 7
	octave 4
	note D_, 8
	note_type 12, 4, 12
	note C_, 8
	sound_call .sub3
	note A#, 4
	note B_, 12
	note_type 12, 5, 13
	octave 4
	note D_, 8
	note_type 12, 12, 0
	note F_, 8
	note_type 12, 12, 0
	note E_, 8
	note_type 12, 12, 7
	note E_, 8
	note A#, 4
	note B_, 12
	sound_jump .mainloop

.sub1:
	octave 4
	note E_, 1
	note E_, 1
	note G_, 1
	octave 5
	note C_, 1
	note E_, 1
	note C_, 1
	octave 4
	note G_, 1
	note F_, 1
	sound_ret

.sub2:
	note_type 12, 12, 1
	octave 4
	note E_, 1
	note E_, 3
	note_type 12, 12, 2
	sound_ret

.sub3:
	note_type 12, 13, 7
	octave 4
	note E_, 8
	note D#, 8
	note D_, 8
	octave 3
	note B_, 8
	sound_ret

.sub4:
	note_type 12, 13, 1
	octave 4
	note E_, 1
	note E_, 3
	note_type 12, 12, 4
	sound_ret

.sub5:
	octave 4
	note D_, 2
	note C#, 2
	octave 3
	note B_, 2
	octave 4
	note C#, 2
	note D_, 2
	note C#, 2
	note F#, 2
	note D_, 2
	sound_ret

HRM_FinalBattle_Ch3:
_chan = 3
	transpose 2, 2
	note_type 12, 1, 5
	octave 4
	note E_, 4
	octave 5
	note E_, 4
	octave 4
	note F_, 4
	octave 5
	note D#, 4
	octave 4
	note G_, 4
	octave 5
	note D_, 4
	octave 4
	note G#, 4
	note B_, 4
	note E_, 1
	note E_, 1
	rest 6
	note E_, 1
	note E_, 1
	rest 6
	note E_, 1
	note E_, 1
	rest 6
	note E_, 1
	note E_, 1
	rest 2
	note D#, 4
	sound_call .sub3
	octave 5
	note C_, 4
	octave 4
	note A#, 2
	sound_call .sub3
	octave 5
	note C_, 4
	note D_, 2
	sound_call .sub3
	rest 2
	note E_, 1
	note D#, 1
	note E_, 1
	note G_, 1
.mainloop:
	sound_call .sub4
.loop1:
	octave 3
	note B_, 2
	octave 4
	note F#, 2
	sound_loop 4, .loop1
	sound_call .sub4
	note E_, 1
	note D#, 1
	note E_, 1
	note F#, 1
	note E_, 2
	note B_, 2
.loop2:
	note E_, 2
	note B_, 2
	note E_, 2
	note B_, 2
	sound_loop 5, .loop2
.loop3:
	octave 4
	note E_, 1
	note E_, 1
	rest 2
	note D_, 4
	note E_, 1
	note E_, 1
	rest 2
	note F_, 4
	note E_, 1
	note E_, 1
	rest 2
	note D_, 4
	note E_, 1
	note E_, 1
	octave 3
	note B_, 6
	sound_loop 2, .loop3
.loop4:
	octave 4
	note E_, 2
	octave 5
	note D_, 2
	sound_loop 4, .loop4
	octave 4
	note E_, 2
	note B_, 2
	note B_, 2
	note E_, 2
	note B_, 2
	note B_, 2
	octave 5
	note C#, 2
	octave 4
	note B_, 2
.loop5:
	octave 4
	note F_, 2
	octave 5
	note D#, 2
	sound_loop 4, .loop5
.loop6:
	octave 4
	note F_, 2
	octave 5
	note C_, 2
	note C_, 2
	sound_loop 2, .loop6
	note D_, 2
	note C_, 2
.loop7:
	octave 4
	note F#, 2
	octave 5
	note E_, 2
	sound_loop 4, .loop7
.loop8:
	octave 4
	note F#, 2
	octave 5
	note C#, 2
	note C#, 2
	octave 4
	note F#, 2
	octave 5
	note C#, 2
	note C#, 2
	note E_, 2
	note C#, 2
	sound_loop 2, .loop8
	sound_call .sub1
	sound_call .sub1
	octave 4
	note G_, 2
	octave 5
	note D_, 2
.loop9:
	octave 4
	note G_, 2
	octave 5
	note D_, 2
	octave 4
	note G_, 2
	octave 5
	note D_, 2
	octave 4
	note G_, 2
	octave 5
	note D_, 2
	sound_loop 2,.loop9
	octave 4
	note G_, 1
	note F#, 1
	note G_, 1
	note G#, 1
	sound_call .sub2
	sound_call .sub2
.loop10:
	octave 4
	note A#, 2
	octave 5
	note F_, 2
	sound_loop 4, .loop10
	octave 4
	note A#, 2
	octave 5
	note F_, 2
	note G_, 2
	note F_, 2
	note E_, 2
	note D_, 2
	note C#, 2
	octave 4
	note A#, 2
	note A_, 2
	octave 5
	note C#, 2
.loop11:
	octave 4
	note A_, 2
	octave 5
	note C#, 2
	octave 4
	note A_, 2
	octave 5
	note C#, 2
	octave 4
	note A_, 2
	octave 5
	note C#, 2
	sound_loop 2, .loop11
	octave 4
	note A_, 2
	note G#, 2
	note G_, 2
	octave 5
	note D_, 2
.loop12:
	octave 4
	note G_, 2
	octave 5
	note D_, 2
	octave 4
	note G_, 2
	octave 5
	note D_, 2
	octave 4
	note G_, 2
	octave 5
	note D_, 2
	sound_loop 2, .loop12
	octave 4
	note G_, 1
	note F#, 1
	note G_, 1
	note G#, 1
.loop13:
	note E_, 2
	note A_, 2
	sound_loop 4, .loop13
	note E_, 2
	note A_, 2
	note E_, 2
	note A_, 2
	note E_, 2
	note F_, 2
	note F#, 2
	note G_, 2
	note F#, 2
	note B_, 2
.loop14:
	note F#, 2
	note B_, 2
	note F#, 2
	note B_, 2
	note F#, 2
	note B_, 2
	sound_loop 2, .loop14
	note F#, 2
	note D#, 2
.loop15:
	note E_, 2
	note B_, 2
	sound_loop 4, .loop15
	note E_, 2
	note B_, 2
	note E_, 2
	note B_, 2
	note E_, 2
	note F_, 2
	note F#, 2
	note G_, 2
	note F#, 2
	octave 5
	note D_, 2
.loop16:
	octave 4
	note F#, 2
	octave 5
	note D_, 2
	octave 4
	note F#, 2
	octave 5
	note D_, 2
	octave 4
	note F#, 2
	octave 5
	note D_, 2
	sound_loop 2, .loop16
	octave 4
	note F#, 2
	note F_, 2
	note E_, 2
	note B_, 2
	octave 5
	note E_, 4
	octave 4
	note E_, 2
	note B_, 2
	octave 5
	note D#, 4
	octave 4
	note E_, 2
	note B_, 2
	octave 5
	note D_, 4
	octave 4
	note E_, 2
	note A_, 2
	note B_, 4
	sound_jump .mainloop

.sub1:
	octave 4
	note F#, 2
	octave 5
	note C#, 2
	octave 4
	note F#, 2
	octave 5
	note C#, 2
	octave 4
	note F#, 2
	octave 5
	note C#, 2
	octave 4
	note F#, 2
	octave 5
	note C#, 2
	sound_ret

.sub2:
	octave 4
	note A_, 2
	octave 5
	note E_, 2
	sound_loop 4, .sub2
	sound_ret

.sub3:
	octave 4
	note E_, 1
	note E_, 1
	rest 2
	note B_, 4
	note E_, 1
	note E_, 1
	rest 2
	octave 5
	note C_, 4
	octave 4
	note E_, 1
	note E_, 1
	rest 2
	octave 5
	note D_, 4
	octave 4
	note E_, 1
	note E_, 1
	sound_ret

.sub4:
	octave 4
	note E_, 1
	octave 3
	note E_, 1
	rest 2
	octave 4
	note F#, 4
	note D#, 1
	octave 3
	note D#, 1
	rest 2
	octave 4
	note F_, 4
	note D_, 1
	octave 3
	note D_, 1
	rest 2
	octave 4
	note E_, 4
	note F#, 1
	octave 3
	note F#, 1
	rest 2
	octave 4
	note F#, 4
	note F_, 4
.sub4loop1:
	octave 3
	note B_, 2
	octave 4
	note F#, 2
	sound_loop 3, .sub4loop1
	sound_ret
