HRM_KeyItem0e:
	channel_count 3
	channel 5, HRM_KeyItem0e_Ch5
	channel 6, HRM_KeyItem0e_Ch6
	channel 7, HRM_KeyItem0e_Ch7

HRM_KeyItem0e_Ch5:
_chan = 1
	set_music
	tempo 128
	volume 7
	duty_cycle 3
	vibrato 5, 4, 2
	note_type 5, 10, 4
	octave 3
	note A#, 3
	rest 1
	note A#, 1
	rest 1
	note A#, 1
	rest 1
	note G_, 3
	rest 1
	note G_, 1
	rest 1
	note G_, 1
	rest 1
	octave 4
	note C_, 3
	rest 1
	note C_, 1
	rest 1
	note C_, 1
	rest 1
	octave 3
	note F_, 3
	rest 1
	note F_, 1
	rest 1
	note F_, 1
	rest 1
	note G_, 16
	sound_ret

HRM_KeyItem0e_Ch6:
_chan = 2
	set_music
	duty_cycle 2
	vibrato 12, 8, 4
	note_type 5, 10, 5
	octave 2
	note D#, 2
	note A#, 1
	rest 1
	octave 3
	note D#, 1
	rest 1
	note D#, 1
	rest 1
	octave 2
	note G#, 2
	octave 3
	note D#, 1
	rest 1
	octave 4
	note C_, 1
	rest 1
	note C_, 1
	rest 1
	octave 2
	note G_, 2
	octave 3
	note D#, 1
	rest 1
	octave 4
	note D#, 1
	rest 1
	note D#, 1
	rest 1
	octave 2
	note F_, 2
	octave 3
	note D_, 1
	rest 1
	octave 4
	note D_, 1
	rest 1
	note D_, 1
	rest 1
	octave 2
	note D#, 16
	sound_ret

HRM_KeyItem0e_Ch7:
_chan = 3
	set_music
	vibrato 7, 1, 3
	note_type 5, 1, 14
	octave 5
	note G_, 3
	rest 1
	note G_, 1
	rest 1
	note G_, 1
	rest 1
	note D#, 3
	rest 1
	note D#, 1
	rest 1
	note D#, 1
	rest 1
	note G#, 3
	rest 1
	note G#, 1
	rest 1
	note G#, 1
	rest 1
	note A#, 3
	rest 1
	note A#, 1
	rest 1
	note A#, 1
	rest 1
	octave 6
	note D#, 12
	volume_envelope 2, 14
	note D#, 2
	volume_envelope 3, 14
	note D#, 2
	sound_ret