HRM_ObtainHiddenItem0c:
	channel_count 3
	channel 5, HRM_ObtainHiddenItem0c_Ch5
	channel 6, HRM_ObtainHiddenItem0c_Ch6
	channel 7, HRM_ObtainHiddenItem0c_Ch7

HRM_ObtainHiddenItem0c_Ch5:
_chan = 1
	set_music
	tempo 256
	volume 7
	duty_cycle 2
	vibrato 12, 4, 4
	note_type 5, 10, 4
	octave 4
	note C_, 2
	octave 3
	note C_, 1
	rest 1
	note A_, 2
	note C_, 1
	rest 1
	note F_, 2
	note C_, 1
	rest 1
	note F_, 1
	rest 1
	note C_, 1
	rest 1
	octave 4
	note C#, 1
	rest 1
	note C#, 1
	rest 1
	note F_, 1
	rest 1
	note C#, 1
	rest 1
	octave 3
	note A#, 1
	rest 1
	octave 4
	note C#, 1
	rest 1
	note C_, 8
	sound_ret

HRM_ObtainHiddenItem0c_Ch6:
_chan = 2
	set_music
	duty_cycle 3
	vibrato 5, 7, 2
	note_type 5, 12, 3
	octave 1
	note F_, 2
	volume_envelope 10, 3
	octave 2
	note A_, 1
	rest 1
	volume_envelope 12, 3
	note C_, 2
	volume_envelope 10, 3
	note A_, 1
	rest 1
	volume_envelope 12, 3
	note F_, 2
	volume_envelope 10, 3
	note A_, 1
	rest 1
	octave 3
	note C_, 1
	rest 1
	octave 2
	note A_, 1
	rest 1
	volume_envelope 12, 3
	octave 1
	note A#, 2
	volume_envelope 10, 3
	octave 2
	note A#, 1
	rest 1
	octave 3
	note C#, 1
	rest 1
	note F_, 1
	rest 1
	note C#, 1
	rest 1
	octave 2
	note A#, 1
	rest 1
	volume_envelope 12, 3
	octave 1
	note F_, 8
	sound_ret

HRM_ObtainHiddenItem0c_Ch7:
_chan = 3
	set_music
	vibrato 7, 1, 3
	note_type 5, 1, 0
	octave 5
	note A_, 4
	note F_, 4
	note C_, 7
	rest 1
	note A#, 1
	rest 1
	note A#, 1
	rest 1
	note A#, 1
	rest 1
	note G_, 1
	rest 1
	note G_, 1
	rest 1
	note A#, 1
	rest 1
	note A_, 6
	volume_envelope 2, 0
	note A_, 1
	volume_envelope 3, 0
	note A_, 1
	sound_ret