HRM_TitleScreen:
	channel_count 4
	channel 1, HRM_TitleScreen_Ch1
	channel 2, HRM_TitleScreen_Ch2
	channel 3, HRM_TitleScreen_Ch3
	channel 4, HRM_TitleScreen_Ch4

HRM_TitleScreen_Ch1:
_chan = 1
	tempo 137
	vibrato 9, 3, 4
	stereo_panning FALSE, TRUE
	duty_cycle 3
	pitch_offset 1
	note_type 12, 12, 1
	octave 3
	note E_, 1
	note G_, 1
	note B_, 1
	octave 4
	note D_, 1
	octave 3
	note B_, 4
	note B_, 6
	note B_, 1
	note B_, 1
	note B_, 4
	note B_, 4
	note_type 12, 12, 3
	note B_, 4
	note_type 8, 12, 1
	octave 4
	note C_, 2
	note C_, 2
	note C_, 2
	note C_, 2
	note C_, 2
	note C#, 2
.mainloop
	note_type 8, 12, 4
	octave 3
	note D_, 9
	note_type 12, 12, 1
	octave 2
	note B_, 2
	note_type 12, 12, 2
	octave 3
	note D_, 2
	note_type 12, 12, 1
	octave 2
	note B_, 1
	note B_, 1
	octave 3
	note G_, 2
	octave 2
	note B_, 2
	note_type 12, 12, 4
	octave 3
	note C_, 6
	note F_, 4
	note_type 12, 12, 1
	note F_, 1
	note C_, 1
	note F_, 2
	octave 2
	note A_, 2
	note_type 12, 12, 4
	octave 3
	note D_, 8
	note C_, 8
	note G_, 6
	pitch_slide 1, 3, C_
	note G_, 2
	note_type 8, 12, 4
	sound_call .sub1
	octave 3
	note D_, 2
	note_type 6, 12, 1
	note D_, 2
	note D_, 2
	octave 4
	note C_, 4
	octave 3
	note F_, 4
	note A_, 4
	note F_, 4
	note_type 6, 12, 4
	note C_, 4
	note E_, 4
	note_type 8, 12, 4
	note E_, 4
	note E_, 4
	note C_, 4
	note D_, 12
	rest 3
	note_type 12, 12, 1
	note G_, 1
	note G_, 1
	note G_, 1
	rest 2
	note A_, 1
	note_type 12, 12, 4
	note B_, 10
	note_type 12, 12, 2
	octave 2
	note B_, 2
	octave 3
	note C_, 2
	note D_, 2
	note_type 12, 12, 4
	note D_, 6
	octave 2
	note B_, 2
	note_type 12, 12, 2
	octave 3
	note D_, 2
	note G_, 1
	note F#, 1
	note_type 6, 12, 1
	note G_, 2
	note A_, 2
	note B_, 2
	octave 4
	note D_, 2
	octave 3
	note A_, 4
	note F_, 8
	note C_, 4
	note_type 6, 12, 4
	note F_, 8
	note C_, 8
	note D_, 16
	duty_cycle 2
	note F_, 4
	note C_, 12
	note D_, 12
	octave 2
	note B_, 4
	note_type 8, 12, 4
	sound_call .sub1
	octave 4
	note G_, 6
	note F#, 2
	note F_, 1
	rest 1
	note_type 12, 12, 1
	octave 2
	note F_, 1
	note F_, 1
	note_type 12, 12, 4
	octave 3
	note C_, 4
	note C_, 4
	note E_, 4
	note D_, 6
	note F_, 2
	note G_, 2
	note D_, 4
	note G_, 2
	note G_, 6
	note A_, 4
	note F_, 2
	note A_, 2
	octave 4
	note C_, 2
	octave 2
	note A#, 6
	note F_, 4
	octave 3
	note D_, 2
	note_type 12, 12, 2
	octave 2
	note A#, 1
	note A_, 1
	note A#, 1
	octave 3
	note C_, 1
	note D_, 2
	note A#, 1
	octave 4
	note C_, 1
	note_type 12, 12, 4
	note D_, 4
	note_type 12, 12, 2
	octave 3
	note F_, 1
	note D_, 1
	note F_, 1
	note A#, 1
	note F_, 1
	note D_, 1
	octave 2
	note A#, 1
	octave 3
	note D_, 1
	note_type 12, 12, 4
	note G_, 6
	note E_, 4
	note D_, 2
	note_type 12, 11, 2
	octave 4
	note C_, 1
	octave 3
	note G_, 1
	octave 4
	note C_, 1
	note D_, 1
	note E_, 2
	note_type 12, 12, 3
	note C_, 1
	note D_, 1
	note_type 12, 12, 4
	note E_, 4
	note_type 12, 12, 2
	octave 3
	note G_, 1
	note E_, 1
	note G_, 1
	octave 4
	note C_, 1
	octave 3
	note G_, 1
	note E_, 1
	note C_, 1
	note E_, 1
	note_type 12, 9, 2
	octave 2
	note D_, 1
	note A#, 1
	note B_, 1
	octave 3
	note C#, 1
	note F#, 1
	octave 4
	note C_, 1
	octave 3
	note F#, 1
	note C#, 1
	note A#, 1
	octave 4
	note D_, 1
	octave 3
	note A#, 1
	note F#, 1
	note F_, 1
	note F#, 1
	note F_, 1
	note C_, 1
	note C#, 1
	note D_, 1
	note C#, 1
	octave 2
	note A#, 1
	octave 3
	note C_, 1
	octave 2
	note B_, 1
	note A_, 1
	note F#, 1
	note_type 8, 12, 4
	octave 4
	note C_, 4
	note C_, 4
	note C#, 4
	note_type 12, 9, 2
	note D_, 1
	octave 3
	note D_, 1
	note F_, 1
	note G#, 1
	octave 4
	note C_, 1
	octave 3
	note B_, 1
	octave 4
	note C_, 1
	note E_, 1
	note F#, 1
	note A#, 1
	note F#, 1
	note E_, 1
	note D_, 1
	note F#, 1
	note D_, 1
	octave 3
	note B_, 1
	octave 4
	note C_, 1
	note E_, 1
	note C_, 1
	octave 3
	note G#, 1
	note A_, 1
	note G_, 1
	note F_, 1
	note D_, 1
	note_type 8, 12, 4
	octave 4
	note C_, 4
	note C_, 4
	octave 3
	note B_, 4
	sound_jump .mainloop

.sub1:
	octave 3
	note C_, 4
	octave 2
	note B_, 4
	octave 3
	note C_, 4
	duty_cycle 3
	note D_, 9
	note_type 12, 12, 4
	octave 2
	note B_, 1
	rest 1
	sound_ret

HRM_TitleScreen_Ch2:
_chan = 2
	stereo_panning TRUE, FALSE
	vibrato 16, 4, 6
	duty_cycle 1
	note_type 12, 14, 1
	octave 3
	note G_, 1
	note B_, 1
	octave 4
	note D_, 1
	note F#, 1
	note G_, 4
	note G_, 6
	note G_, 1
	note G_, 1
	note G_, 4
	note G_, 4
	note_type 12, 12, 3
	note G_, 4
	note_type 8, 12, 2
	note F_, 2
	note F_, 2
	note F_, 2
	note F_, 2
	note F_, 2
	note F#, 2
.mainloop
	note_type 8, 12, 7
	octave 3
	note G_, 9
	note_type 12, 12, 7
	note B_, 1
	rest 1
	octave 4
	note D_, 8
	note_type 12, 11, 2
	octave 3
	note C_, 1
	rest 1
	octave 2
	note A_, 1
	rest 1
	octave 3
	note F_, 1
	rest 1
	note C_, 1
	note_type 6, 12, 5
	rest 1
	duty_cycle 0
	octave 4
	note E_, 1
	sound_call .sub2
	rest 4
	note_type 6, 12, 1
	note D_, 2
	note D_, 2
	note G_, 4
	note D_, 2
	note D_, 2
	note_type 6, 12, 5
	note G_, 12
	note B_, 2
	rest 2
	octave 4
	note D_, 16
	rest 15
	duty_cycle 2
	note C#, 1
	note_type 8, 12, 5
	note C_, 4
	octave 3
	note B_, 4
	octave 4
	note C_, 4
	note D_, 12
	duty_cycle 1
	octave 3
	note F_, 4
	note E_, 4
	note C_, 4
	note_type 12, 12, 7
	note D_, 1
	rest 1
	octave 2
	note B_, 1
	octave 3
	note C_, 1
	note D_, 12
	note G_, 6
	note B_, 1
	rest 1
	octave 4
	note D_, 8
	rest 6
	note C_, 1
	note_type 6, 12, 5
	rest 1
	duty_cycle 0
	note F#, 1
	sound_call .sub2
	note_type 8, 12, 3
	duty_cycle 2
	octave 4
	note F_, 4
	note E_, 4
	note F_, 4
	duty_cycle 1
	octave 3
	note G_, 3
	note_type 12, 12, 5
	note F#, 1
	rest 3
	note G_, 1
	note B_, 1
	octave 4
	note D_, 8
	octave 3
	note F_, 1
	rest 1
	note C_, 1
	note F_, 1
	note A_, 4
	note_type 8, 12, 5
	octave 4
	note F_, 4
	note E_, 4
	note F_, 4
	note G_, 9
	note_type 12, 12, 5
	note A#, 1
	rest 1
	note_type 12, 12, 7
	note G_, 8
	note_type 12, 0, 11
	note G_, 8
	note_type 12, 12, 7
	note A_, 8
	note_type 12, 12, 5
	note A#, 6
	note F_, 1
	rest 1
	note F_, 8
	rest 8
	note A#, 4
	note B_, 4
	octave 5
	note C_, 6
	octave 4
	note G_, 1
	rest 1
	note G_, 8
	rest 8
	octave 5
	note C_, 4
	note C#, 4
	note D_, 1
	rest 1
	sound_call .sub1
	note C#, 4
	note D_, 2
	rest 1
	sound_call .sub1
	octave 4
	note B_, 4
	sound_jump .mainloop

.sub1:
	note_type 12, 12, 1
	stereo_panning TRUE, TRUE
	octave 2
	note D_, 1
	note D_, 1
	note D_, 1
	rest 1
	note D_, 1
	note D_, 1
	note D_, 1
	rest 1
	note D_, 1
	note D_, 1
	note D_, 1
	rest 1
	note D_, 1
	note D_, 1
	note D_, 1
	rest 1
	note D_, 1
	note D_, 1
	note D_, 1
	rest 1
	note D_, 1
	note D_, 1
	stereo_panning TRUE, FALSE
	note_type 8, 12, 5
	octave 5
	note C_, 4
	note C_, 4
	sound_ret

.sub2:
	note F_, 12
	note E_, 2
	note D#, 2
	note D_, 16
	duty_cycle 1
	octave 3
	note F_, 12
	note E_, 2
	note D#, 2
	note D_, 16
	sound_ret

HRM_TitleScreen_Ch3:
_chan = 3
	vibrato 0, 0, 0
	stereo_panning TRUE, TRUE
	note_type 12, 1, 25
	octave 2
	note G_, 1
	rest 1
	note D_, 1
	rest 1
	note G_, 1
	rest 3
	note G_, 1
	rest 5
	note G_, 1
	note G_, 1
	note G_, 1
	rest 3
	note G_, 1
	rest 3
	note G_, 1
	rest 3
	note_type 8, 1, 25
	note F_, 2
	note F_, 2
	note F_, 2
	note A_, 2
	note A_, 2
	note G#, 2
.mainloop
	note G_, 3
	rest 3
	note D_, 3
	note G_, 3
	rest 3
	note_type 12, 1, 25
	note D_, 1
	note D_, 1
	sound_call .sub1
	octave 3
	note D_, 1
	note D_, 1
	sound_call .sub2
	note G_, 2
	note D_, 2
	note F_, 2
	rest 2
	note C_, 2
	note F_, 2
	rest 2
	note C_, 1
	note C_, 1
	note F_, 2
	note C_, 2
	sound_call .sub2
	note G_, 2
	note D_, 2
	sound_call .sub2
	octave 3
	note D_, 2
	octave 2
	note G_, 1
	note G_, 1
	note G_, 2
	rest 2
	note D_, 1
	rest 1
	note G_, 2
	rest 2
	note D_, 2
	sound_call .sub1
	note D_, 1
	note D_, 1
	note G_, 2
	note D_, 2
	rest 2
	note G_, 1
	note G_, 1
	octave 3
	note D_, 2
	octave 2
	note D_, 1
	note D_, 1
	note G_, 2
	note F#, 2
	note F_, 2
	rest 2
	note C_, 2
	note F_, 2
	rest 2
	note C_, 2
	note F_, 2
	note F#, 2
	sound_call .sub2
	note G_, 2
	note D_, 1
	note D_, 1
	note G_, 2
	rest 2
	note D_, 2
	note A_, 2
	rest 2
	note F_, 1
	note F_, 1
	note A_, 2
	note F_, 1
	note F_, 1
	note A#, 2
	rest 2
	note F_, 2
	note D_, 2
	rest 2
	note F_, 2
	note A#, 2
	note F_, 2
	note A#, 2
	rest 2
	note F_, 2
	note A#, 2
	rest 2
	note F_, 2
	note B_, 2
	note G_, 2
	octave 3
	note C_, 2
	rest 2
	octave 2
	note G_, 2
	note E_, 2
	rest 2
	note G_, 2
	octave 3
	note C_, 2
	octave 2
	note G_, 2
	octave 3
	note C_, 2
	rest 2
	octave 2
	note G_, 2
	octave 3
	note C_, 2
	rest 2
	octave 2
	note G_, 2
	octave 3
	note C#, 2
	octave 2
	note A_, 2
	rest 4
	stereo_panning FALSE, TRUE
	note_type 6, 1, 0
	octave 5
	pitch_slide 1, 4, D_
	note D_, 6
	octave 4
	note D_, 9
	stereo_panning TRUE, FALSE
	octave 6
	pitch_slide 1, 5, D_
	note D_, 5
	octave 5
	note D_, 3
	stereo_panning TRUE, TRUE
	pitch_slide 1, 4, D_
	note D_, 5
	octave 4
	note D_, 6
	rest 6
	note_type 8, 1, 25
	octave 3
	note C_, 4
	note C_, 4
	note C#, 4
	note_type 6, 1, 25
	note D_, 2
	rest 11
	stereo_panning FALSE, TRUE
	note_type 6, 1, 0
	octave 6
	pitch_slide 1, 5, D_
	note D_, 5
	octave 5
	note D_, 9
	stereo_panning TRUE, FALSE
	pitch_slide 1, 4, D_
	note D_, 5
	octave 4
	note D_, 12
	rest 4
	stereo_panning TRUE, TRUE
	note_type 8, 1, 25
	octave 3
	note C_, 4
	note C_, 4
	octave 2
	note B_, 4
	sound_jump .mainloop

.sub1:
	note G_, 2
	note D_, 2
	note F_, 2
	rest 2
	note C_, 2
	note F_, 2
	rest 2
	note C_, 1
	note C_, 1
	note F_, 2
	note G_, 1
	note A_, 1
	note B_, 2
	rest 2
	note G_, 2
	note D_, 2
	rest 2
	note D_, 1
	note D_, 1
	note G_, 2
	note D_, 2
	note G_, 2
	rest 2
	note D_, 2
	note G_, 2
	rest 2
	note D_, 1
	note D_, 1
	note G_, 2
	sound_ret

.sub2:
	octave 2
	note G_, 2
	rest 2
	note D_, 2
	note G_, 2
	rest 2
	note D_, 1
	note D_, 1
	sound_ret

HRM_TitleScreen_Ch4:
_chan = 4
	toggle_noise 5
	drum_speed 12
	rest 2
	drum_speed 6
	drum_note 2, 1
	drum_note 2, 1
	drum_note 2, 1
	drum_note 2, 1
	drum_note 1, 8
	drum_note 1, 8
	rest 4
	drum_note 1, 2
	drum_note 1, 2
	drum_note 1, 8
	drum_note 1, 8
	drum_note 1, 8
	drum_speed 8
	drum_note 1, 2
	drum_note 2, 2
	drum_note 1, 2
	drum_note 1, 2
	drum_note 2, 2
	drum_note 1, 2
.mainloop:
	drum_note 1, 6
	drum_note 1, 9
	drum_speed 12
	drum_note 1, 1
	drum_note 1, 1
	drum_note 1, 4
	drum_note 1, 4
	drum_note 1, 6
	drum_note 1, 1
	drum_note 1, 1
	drum_note 1, 2
	drum_note 1, 2
	sound_call .sub2
	drum_note 1, 1
	drum_note 1, 1
	sound_call .sub2
	drum_note 1, 2
	sound_call .sub2
	drum_speed 6
	drum_note 2, 1
	drum_note 2, 1
	drum_note 2, 1
	drum_note 2, 1
	drum_note 1, 4
	drum_note 1, 8
	drum_note 1, 8
	drum_note 1, 2
	drum_note 1, 2
	drum_note 1, 8
	drum_note 1, 8
	sound_call .sub1
	sound_call .sub1
	drum_note 1, 12
	drum_note 1, 2
	drum_note 1, 2
	drum_note 1, 4
	drum_note 2, 1
	drum_note 2, 1
	drum_note 2, 1
	drum_note 2, 1
	drum_note 1, 8
	sound_call .sub1
	drum_note 1, 8
	sound_call .sub3
	drum_note 1, 4
	sound_call .sub3
	drum_note 1, 2
	drum_note 1, 2
	drum_speed 8
	drum_note 1, 4
	drum_note 1, 4
	drum_note 1, 4
	sound_jump .mainloop

.sub1:
	drum_note 1, 12
	drum_note 1, 2
	drum_note 1, 2
	drum_note 1, 8
	drum_note 1, 8
	drum_note 1, 12
	drum_note 1, 2
	drum_note 1, 2
	drum_note 1, 8
	drum_note 1, 8
	drum_note 1, 12
	drum_note 1, 2
	drum_note 1, 2
	drum_note 1, 4
	drum_note 1, 2
	drum_note 1, 2
	drum_note 1, 8
	sound_ret

.sub2:
	drum_note 1, 4
	drum_note 1, 6
	drum_note 1, 1
	drum_note 1, 1
	drum_note 1, 4
	drum_note 1, 4
	drum_note 1, 6
	drum_note 1, 1
	drum_note 1, 1
	drum_note 1, 2
	sound_ret

.sub3:
	drum_speed 3
	drum_note 7, 1
	drum_note 7, 1
	drum_note 7, 1
	drum_note 7, 1
	drum_note 7, 1
	drum_note 7, 1
	drum_speed 6
	drum_note 7, 13
	drum_note 1, 12
	drum_note 1, 8
	drum_note 1, 2
	drum_note 1, 2
	drum_note 1, 12
	drum_note 1, 2
	drum_note 1, 2
	drum_note 1, 4
	sound_ret
