HRM_ViridianCity:
	channel_count 4
	channel 1, HRM_ViridianCity_Ch1
	channel 2, HRM_ViridianCity_Ch2
	channel 3, HRM_ViridianCity_Ch3
	channel 4, HRM_ViridianCity_Ch4

HRM_ViridianCity_Ch1:
_chan = 1
	tempo 154
	volume 7
	duty_sequence 0
	relative_pitch 1
	stereo_panning TRUE, FALSE
	pitch_offset -1
	note_type 12, 10, 3
	rest 4
.mainloop:
	note_type 12, 10, 3
	octave 3
	note G#, 4
	note F#, 4
	note E_, 2
	note E_, 2
	note F#, 2
	note D#, 2
	note E_, 2
	note E_, 2
	note D#, 2
	note C#, 4
	note D#, 4
	note E_, 2
	note D#, 4
	note C#, 2
	note E_, 2
	note_type 6, 10, 3
	note F_, 1
	note E_, 3
	note_type 12, 7, 1
	octave 2
	note B_, 2
	volume_envelope 10, 3
	octave 3
	note C#, 4
	octave 2
	note B_, 6
	octave 3
	note C#, 2
	note C#, 3
	volume_envelope 9, 1
	note C_, 1
	volume_envelope 10, 3
	octave 2
	note B_, 4
	octave 3
	note F#, 2
	note D#, 4
	note E_, 2
	note D#, 4
	note C#, 4
	octave 2
	note B_, 4
	octave 3
	note C#, 2
	note D#, 2
	note C#, 2
	octave 3
	note D#, 6
	note E_, 2
	octave 2
	note B_, 4
	octave 3
	note C#, 2
	octave 2
	note B_, 2
	note A_, 4
	note B_, 4
	note B_, 2
	octave 3
	note C#, 2
	note D#, 2
	note E_, 2
	note D#, 2
	note C#, 2
	stereo_panning TRUE, TRUE
	octave 2
	note B_, 1
	octave 3
	note C#, 1
	note E_, 2
	stereo_panning TRUE, FALSE
	note E_, 2
	stereo_panning TRUE, TRUE
	note C#, 2
	stereo_panning TRUE, FALSE
	note E_, 2
	stereo_panning TRUE, TRUE
	octave 2
	note B_, 2
	note B_, 2
	stereo_panning TRUE, FALSE
	octave 3
	note F#, 2
	note D#, 2
	note E_, 2
	stereo_panning TRUE, TRUE
	octave 2
	note B_, 2
	octave 3
	note C#, 2
	note E_, 4
	note E_, 2
	note C#, 2
	octave 2
	note B_, 2
	octave 3
	note C#, 2
	octave 2
	note A_, 2
	stereo_panning TRUE, FALSE
	octave 3
	note C#, 2
	note E_, 2
	note_type 6, 10, 3
	note F_, 1
	note E_, 3
	note_type 12, 7, 1
	octave 2
	note B_, 2
	volume_envelope 10, 3
	octave 3
	note C#, 2
	octave 2
	note A_, 2
	octave 2
	note B_, 6
	octave 3
	note C#, 2
	note C#, 2
	volume_envelope 9, 2
	octave 2
	note B_, 2
	volume_envelope 10, 3
	note B_, 2
	stereo_panning TRUE, TRUE
	note B_, 1
	octave 3
	note C#, 1
	octave 3
	note D#, 2
	stereo_panning TRUE, FALSE
	note D#, 2
	stereo_panning TRUE, TRUE
	note C#, 2
	stereo_panning TRUE, FALSE
	note E_, 2
	stereo_panning TRUE, TRUE
	octave 2
	note B_, 2
	note B_, 2
	stereo_panning TRUE, FALSE
	octave 3
	note C#, 2
	stereo_panning TRUE, TRUE
	note F#, 2
	stereo_panning TRUE, FALSE
	octave 2
	note B_, 2
	stereo_panning TRUE, TRUE
	note B_, 2
	octave 3
	note C#, 2
	note D#, 2
	stereo_panning TRUE, FALSE
	note C#, 2
	stereo_panning TRUE, TRUE
	octave 3
	note D#, 2
	note C#, 2
	octave 2
	note B_, 2
	octave 3
	note E_, 2
	octave 2
	note B_, 2
	stereo_panning TRUE, FALSE
	octave 3
	note C#, 2
	note G#, 2
	note E_, 4
	octave 2
	note B_, 2
	octave 3
	note E_, 2
	note C#, 4
	octave 2
	note B_, 2
	octave 3
	note D#, 4
	note C#, 2
	note E_, 4
	sound_call .sub1
	note A_, 2
	note B_, 2
	note A_, 2
	note G#, 2
	note A_, 4
	note F#, 4
	note G#, 2
	note E_, 2
	octave 2
	note B_, 2
	octave 3
	note E_, 4
	note G#, 2
	octave 2
	note B_, 2
	octave 3
	note E_, 2
	note E_, 2
	note F#, 2
	note E_, 2
	note D#, 2
	note E_, 2
	note D#, 2
	note C#, 2
	octave 2
	note B_, 2
	octave 3
.loop1:
	note C#, 2
	note D#, 2
	note C#, 2
	octave 2
	note B_, 4
	note B_, 2
	octave 3
	note C#, 2
	note D#, 2
	sound_loop 2, .loop1
	note E_, 2
	octave 2
	note B_, 4
	octave 3
	note E_, 4
	octave 2
	note B_, 2
	octave 3
	note C#, 2
	note G#, 2
	note G#, 2
	octave 2
	note B_, 2
	octave 3
	note F#, 2
	octave 2
	note B_, 2
	octave 3
	note E_, 2
	octave 2
	note B_, 2
	octave 3
	note D#, 2
	octave 2
	note B_, 2
	octave 3
	sound_call .sub1
	note A_, 2
	note E_, 2
	note A_, 2
	note B_, 2
	note A_, 2
	note G#, 2
	note A_, 2
	note F#, 2
	note G#, 2
	note E_, 2
	octave 2
	note B_, 2
	octave 3
	note E_, 2
	note C#, 2
	note G#, 2
	note C#, 2
	note D#, 2
	note B_, 2
	note E_, 2
	note G#, 2
	note E_, 2
	note F#, 2
	note E_, 4
	note G#, 2
	note F#, 2
	note D#, 2
	octave 2
	note B_, 2
	octave 3
	note D#, 4
	note F#, 2
	note D#, 2
	note D#, 2
	note F#, 2
	octave 2
	note B_, 2
	octave 3
	note E_, 2
	octave 2
	note B_, 2
	octave 3
	note D#, 2
	octave 2
	note B_, 2
	note B_, 2
	octave 3
	note D#, 2
	note F#, 8
	note F#, 4
	note D#, 4
	note E_, 8
	octave 2
	note B_, 4
	octave 3
	note E_, 2
	note F#, 2
	sound_jump .mainloop

.sub1:
	note A_, 2
	note E_, 2
	note C#, 2
	note E_, 4
	note A_, 2
	note C#, 2
	note E_, 2
	sound_ret

HRM_ViridianCity_Ch2:
_chan = 2
	stereo_panning TRUE, TRUE
	duty_cycle 3
	note_type 12, 10, 6
	rest 2
	octave 1
	note E_, 2
.mainloop:
	sound_call .sub1
	note E_, 2
	sound_call .sub2
	octave 1
	note F_, 4
	stereo_panning FALSE, TRUE
	duty_cycle 2
	volume_envelope 7, 6
	octave 3
	note F_, 2
	note G_, 2
	note A_, 2
	stereo_panning TRUE, TRUE
	duty_cycle 3
	volume_envelope 10, 6
	octave 1
	note F_, 2
	stereo_panning FALSE, TRUE
	duty_cycle 2
	volume_envelope 7, 6
	octave 3
	note F_, 2
	note G_, 2
	stereo_panning TRUE, TRUE
	duty_cycle 3
	volume_envelope 10, 6
	octave 1
	note F_, 4
	octave 2
	note C_, 2
	note F_, 4
	sound_call .sub1
	octave 1
	note E_, 2
	sound_call .sub2
	octave 1
	note F_, 8
	note C_, 2
	octave 2
	note F_, 6
	note C_, 4
	octave 1
	note F_, 2
	note A_, 2
	octave 2
	note C_, 2
	sound_call .sub3
	sound_call .sub4
	note G_, 2
	stereo_panning TRUE, TRUE
	duty_cycle 3
	note_type 6, 10, 6
	octave 2
	note D_, 8
	note C_, 3
	octave 1
	note B_, 1
	note A#, 4
	note A_, 4
	note G_, 4
	stereo_panning FALSE, TRUE
	duty_cycle 2
	note_type 12, 7, 6
	octave 3
	note E_, 2
	note G_, 2
	sound_call .sub5
	note E_, 2
	note C_, 2
	sound_call .sub2
	sound_call .sub6
	octave 1
	note C_, 2
	note E_, 2
	sound_call .sub2
	octave 1
	note A_, 4
	note F_, 2
	note A_, 2
	octave 2
	note C_, 2
	sound_call .sub3
	sound_call .sub4
	note F_, 2
	sound_call .sub5
	octave 2
	note C_, 2
	octave 1
	note G_, 2
	note E_, 2
	stereo_panning FALSE, TRUE
	duty_cycle 2
	volume_envelope 7, 6
	octave 3
	note E_, 2
	note F_, 2
	stereo_panning TRUE, TRUE
	duty_cycle 3
	volume_envelope 10, 6
	octave 1
	note A#, 4
	note G_, 2
	note E_, 2
	note C_, 2
	note A#, 2
	octave 2
	note F_, 2
	note A#, 2
	octave 1
	note A#, 4
	note G_, 2
	note A#, 2
	note G_, 2
	sound_call .sub2
	sound_call .sub6
	octave 1
	note E_, 2
	stereo_panning FALSE, TRUE
	duty_cycle 2
	volume_envelope 7, 6
	octave 3
	note G_, 2
	sound_jump .mainloop

.sub1:
	stereo_panning TRUE, TRUE
	duty_cycle 3
	volume_envelope 10, 6
	octave 1
	note F_, 2
	stereo_panning FALSE, TRUE
	duty_cycle 2
	volume_envelope 7, 6
	octave 3
	note F_, 2
	note G_, 2
	stereo_panning TRUE, TRUE
	duty_cycle 3
	volume_envelope 10, 6
	octave 1
	note F_, 8
	note E_, 2
	note F_, 4
	stereo_panning FALSE, TRUE
	duty_cycle 2
	volume_envelope 7, 6
	octave 3
	note G_, 2
	stereo_panning TRUE, TRUE
	duty_cycle 3
	volume_envelope 10, 6
	octave 1
	note F_, 4
	octave 2
	note C_, 2
	note F_, 2
	octave 1
	note A_, 2
	note A#, 2
	stereo_panning FALSE, TRUE
	duty_cycle 2
	volume_envelope 7, 6
	octave 3
	note G_, 2
	rest 2
	stereo_panning TRUE, TRUE
	duty_cycle 3
	volume_envelope 10, 6
	octave 1
	note G_, 4
	note E_, 2
	octave 2
	note D_, 2
	note C#, 2
	note C_, 2
	stereo_panning FALSE, TRUE
	duty_cycle 2
	volume_envelope 7, 6
	octave 3
	note G_, 2
	note A_, 2
	stereo_panning TRUE, TRUE
	duty_cycle 3
	volume_envelope 10, 6
	octave 1
	note G_, 4
	note F_, 2
	note E_, 2
	note C_, 2
	note G_, 2
	stereo_panning FALSE, TRUE
	duty_cycle 2
	volume_envelope 7, 6
	octave 3
	note E_, 2
	note F_, 2
	stereo_panning TRUE, TRUE
	duty_cycle 3
	volume_envelope 10, 6
	octave 1
	note G_, 4
	note C_, 2
	octave 2
	note C_, 2
	stereo_panning FALSE, TRUE
	duty_cycle 2
	volume_envelope 7, 6
	octave 3
	note G_, 2
	stereo_panning TRUE, TRUE
	duty_cycle 3
	volume_envelope 10, 6
	octave 1
	note G_, 2
	stereo_panning FALSE, TRUE
	duty_cycle 2
	volume_envelope 7, 6
	octave 3
	note E_, 2
	note F_, 2
	stereo_panning TRUE, TRUE
	duty_cycle 3
	volume_envelope 10, 6
	octave 1
	note E_, 2
	stereo_panning FALSE, TRUE
	duty_cycle 2
	volume_envelope 7, 6
	octave 4
	note C_, 2
	stereo_panning TRUE, TRUE
	duty_cycle 3
	volume_envelope 10, 6
	octave 1
	note C_, 2
	octave 2
	note C_, 2
	sound_ret

.sub2:
	note F_, 2
	stereo_panning FALSE, TRUE
	duty_cycle 2
	volume_envelope 7, 6
	octave 3
	note F_, 2
	note G_, 2
	stereo_panning TRUE, TRUE
	duty_cycle 3
	volume_envelope 10, 6
	sound_ret

.sub3:
	octave 1
	note A#, 2
	stereo_panning FALSE, TRUE
	duty_cycle 2
	volume_envelope 7, 6
	octave 3
	note D_, 2
	note F_, 2
	stereo_panning TRUE, TRUE
	duty_cycle 3
	volume_envelope 10, 6
	octave 2
	note F_, 4
	stereo_panning FALSE, TRUE
	duty_cycle 2
	volume_envelope 7, 6
	octave 3
	note D_, 2
	stereo_panning TRUE, TRUE
	duty_cycle 3
	note_type 3, 10, 6
	octave 2
	note C_, 8
	octave 1
	note B_, 1
	note A#, 1
	note A_, 6
	note A#, 8
	stereo_panning FALSE, TRUE
	duty_cycle 2
	note_type 12, 7, 6
	octave 3
	note D_, 2
	stereo_panning TRUE, TRUE
	duty_cycle 3
	volume_envelope 10, 6
	octave 2
	note F_, 2
	note A#, 4
	note F_, 2
	note D_, 2
	octave 1
	note A#, 2
	note A_, 2
	stereo_panning FALSE, TRUE
	duty_cycle 2
	volume_envelope 7, 6
	octave 3
	note C_, 2
	stereo_panning TRUE, TRUE
	duty_cycle 3
	volume_envelope 10, 6
	octave 2
	note F_, 2
	octave 3
	note C_, 4
	octave 2
	note F_, 2
	note C_, 2
	octave 1
	note F_, 2
	note A_, 2
	stereo_panning FALSE, TRUE
	duty_cycle 2
	volume_envelope 7, 6
	octave 3
	note C_, 2
	stereo_panning TRUE, TRUE
	duty_cycle 3
	volume_envelope 10, 6
	octave 2
	note F_, 2
	note A_, 2
	octave 3
	note C_, 2
	octave 2
	note F_, 2
	note C_, 2
	octave 1
	note A_, 2
	sound_ret

.sub4:
	note G_, 2
	stereo_panning FALSE, TRUE
	duty_cycle 2
	volume_envelope 7, 6
	octave 3
	note E_, 2
	sound_ret

.sub5:
	stereo_panning TRUE, TRUE
	duty_cycle 3
	volume_envelope 10, 6
	octave 2
	note C_, 4
	octave 1
	note G_, 2
	sound_ret

.sub6:
	octave 2
	note C_, 2
	stereo_panning FALSE, TRUE
	duty_cycle 2
	volume_envelope 7, 6
	octave 4
	note C_, 2
	octave 3
	note A#, 2
	stereo_panning TRUE, TRUE
	duty_cycle 3
	volume_envelope 10, 6
	sound_ret

HRM_ViridianCity_Ch3:
_chan = 3
	vibrato 17, 3, 3
	stereo_panning TRUE, TRUE
	note_type 6, 1, 21
	rest 4
	octave 5
	note A_, 2
	note A#, 2
.mainloop:
	stereo_panning TRUE, TRUE
	note_type 6, 1, 21
	octave 6
	note C_, 4
	volume_envelope 2, 21
	note C_, 4
	volume_envelope 1, 21
	octave 5
	note A#, 4
	sound_call .sub1
	stereo_panning TRUE, TRUE
	volume_envelope 1, 21
	octave 5
	note A_, 4
	sound_call .sub2
	sound_call .sub3
	sound_call .sub1
	rest 4
	stereo_panning TRUE, TRUE
	volume_envelope 1, 21
	octave 5
	note A_, 4
	note A#, 4
	octave 6
	note C_, 4
	sound_call .sub4
	stereo_panning TRUE, TRUE
	volume_envelope 1, 21
	octave 6
	note C_, 4
	octave 5
	note A#, 4
	note A_, 4
	note A#, 4
	note G_, 4
	volume_envelope 2, 21
	note G_, 4
	sound_call .sub5
	rest 4
	sound_call .sub5
	sound_call .sub6
	sound_call .sub7
	note E_, 3
	rest 3
	volume_envelope 1, 6
	note C_, 2
	volume_envelope 2, 6
	note E_, 2
	volume_envelope 1, 6
	note F_, 3
	volume_envelope 2, 6
	note F_, 5
	volume_envelope 1, 6
	note G_, 3
	volume_envelope 2, 6
	note G_, 5
	volume_envelope 1, 21
	note A#, 4
	volume_envelope 2, 21
	note A#, 4
	volume_envelope 1, 21
	note A_, 4
	sound_call .sub3
	stereo_panning TRUE, TRUE
	volume_envelope 1, 21
	octave 5
	note G_, 4
	sound_call .sub8
	volume_envelope 2, 21
	octave 5
	note G_, 4
	note E_, 4
	stereo_panning TRUE, TRUE
	octave 6
	note C_, 4
	volume_envelope 1, 21
	octave 5
	note G_, 4
	note A_, 4
	note A#, 4
	volume_envelope 2, 21
	note A#, 4
	volume_envelope 1, 21
	note A#, 4
	note A_, 4
	note G_, 4
	note A_, 4
	note F_, 4
	volume_envelope 2, 21
	note F_, 4
	sound_call .sub1
	stereo_panning TRUE, TRUE
	volume_envelope 1, 6
	note D_, 3
	volume_envelope 2, 6
	note D_, 3
	volume_envelope 3, 6
	note D_, 2
	sound_call .sub7
	note E_, 2
	volume_envelope 1, 6
	note F_, 3
	volume_envelope 2, 6
	note F_, 3
	volume_envelope 3, 6
	note F_, 3
	rest 3
	volume_envelope 1, 6
	note G_, 3
	volume_envelope 2, 6
	note G_, 3
	volume_envelope 3, 6
	note G_, 3
	rest 3
	volume_envelope 1, 6
	note A_, 3
	volume_envelope 2, 6
	note A_, 1
	volume_envelope 1, 30
	note A_, 2
	note A#, 2
	octave 5
	note C_, 4
	rest 4
	octave 4
	note A#, 4
	stereo_panning FALSE, TRUE
	volume_envelope 2, 5
	note A_, 2
	volume_envelope 3, 5
	note A_, 1
	stereo_panning TRUE, TRUE
	volume_envelope 2, 30
	note G#, 1
	volume_envelope 1, 30
	note A_, 3
	rest 1
	note A_, 3
	rest 1
	sound_call .sub3
	stereo_panning TRUE, TRUE
	volume_envelope 1, 30
	note C_, 2
	stereo_panning FALSE, TRUE
	volume_envelope 3, 5
	note A_, 2
	volume_envelope 2, 5
	octave 5
	note F_, 2
	volume_envelope 3, 5
	note F_, 1
	stereo_panning TRUE, TRUE
	volume_envelope 2, 30
	octave 4
	note G#, 1
	volume_envelope 1, 30
	note A_, 4
	note A#, 4
	octave 5
	note C_, 4
	rest 4
	note C_, 4
	note_type 8, 1, 30
	octave 4
	note A#, 1
	octave 5
	note C_, 1
	octave 4
	note A#, 1
	note_type 6, 1, 30
	note A_, 4
	note A#, 4
	note G_, 4
	sound_call .sub1
	sound_call .sub5
	volume_envelope 2, 5
	octave 5
	note D_, 2
	volume_envelope 3, 5
	note D_, 2
	stereo_panning TRUE, TRUE
	volume_envelope 1, 6
	note G_, 2
	volume_envelope 2, 6
	note G_, 2
	sound_call .sub6
	volume_envelope 1, 6
	note E_, 3
	volume_envelope 2, 6
	note E_, 1
	volume_envelope 1, 6
	note C_, 3
	volume_envelope 2, 6
	note C_, 3
	volume_envelope 3, 6
	note C_, 2
	volume_envelope 1, 6
	octave 4
	note G_, 2
	volume_envelope 2, 6
	octave 5
	note C_, 2
	volume_envelope 1, 6
	note F_, 3
	volume_envelope 2, 6
	note F_, 1
	volume_envelope 1, 6
	note C_, 2
	volume_envelope 2, 6
	note F_, 2
	volume_envelope 1, 6
	note G_, 3
	volume_envelope 2, 6
	note G_, 1
	volume_envelope 1, 30
	octave 4
	note G_, 2
	note A_, 2
	note A#, 4
	rest 4
	note A_, 4
	stereo_panning FALSE, TRUE
	volume_envelope 2, 5
	note G_, 2
	volume_envelope 3, 5
	note G_, 1
	stereo_panning TRUE, TRUE
	volume_envelope 2, 30
	note F#, 1
	volume_envelope 1, 30
	note G_, 3
	rest 1
	note G_, 3
	rest 1
	sound_call .sub2
	stereo_panning TRUE, TRUE
	volume_envelope 1, 30
	octave 5
	note C_, 2
	rest 2
	rest 3
	volume_envelope 2, 30
	octave 4
	note F#, 1
	volume_envelope 1, 30
	note G_, 4
	note A_, 4
	note A#, 4
	sound_call .sub4
	stereo_panning TRUE, TRUE
	note_type 8, 1, 30
	octave 4
	note A#, 3
	note A_, 1
	note A#, 1
	note A_, 1
	note_type 6, 1, 30
	note G_, 4
	note A_, 4
	note F_, 4
	rest 4
	sound_call .sub1
	sound_call .sub4
	sound_call .sub5
	sound_call .sub1
	sound_call .sub3
	stereo_panning TRUE, TRUE
	note_type 12, 1, 4
	note F_, 2
	rest 2
	volume_envelope 2, 4
	note F_, 1
	rest 1
	volume_envelope 1, 4
	note G_, 2
	rest 2
	volume_envelope 2, 4
	note G_, 1
	rest 1
	volume_envelope 1, 4
	note A_, 1
	note A#, 1
	octave 5
	note C_, 1
	note C#, 1
	note D_, 10
	pitch_slide 1, 4, A#
	note D_, 2
	octave 4
	note A#, 4
	octave 5
	note F_, 8
	note G_, 2
	note F_, 1
	rest 1
	note_type 8, 1, 4
	note E_, 1
	note F_, 1
	note E_, 1
	note_type 12, 1, 4
	note D_, 2
	note C_, 11
	pitch_slide 1, 4, A_
	note C_, 1
	octave 4
	note A_, 4
	octave 5
	note C_, 14
	note_type 6, 2, 4
	rest 3
	octave 4
	note F#, 1
	note_type 12, 1, 4
	note G_, 12
	note_type 6, 1, 4
	note A_, 4
	note A#, 4
	octave 5
	note C_, 4
	rest 4
	octave 4
	note A#, 4
	sound_call .sub5
	stereo_panning TRUE, TRUE
	volume_envelope 1, 4
	note A_, 4
	sound_call .sub5
	stereo_panning TRUE, TRUE
	volume_envelope 1, 4
	note G_, 4
	sound_call .sub3
	stereo_panning TRUE, TRUE
	note_type 12, 1, 4
	note A_, 10
	pitch_slide 1, 4, F_
	note A_, 2
	note F_, 4
	note_type 12, 1, 4
	octave 5
	note C_, 14
	note_type 6, 2, 4
	rest 3
	note D#, 1
	note_type 12, 1, 4
	note D_, 12
	note E_, 2
	note F_, 2
	note G_, 2
	octave 4
	note A#, 1
	rest 1
	octave 5
	note F_, 2
	octave 4
	note A#, 1
	rest 1
	octave 5
	note E_, 2
	octave 4
	note A#, 1
	rest 1
	octave 5
	note D_, 2
	octave 4
	note A#, 1
	rest 1
	octave 5
	note C_, 12
	note_type 6, 1, 4
	note D_, 4
	note E_, 4
	note D_, 4
	rest 4
	note C_, 4
	sound_call .sub1
	stereo_panning TRUE, TRUE
	volume_envelope 1, 4
	note A#, 4
	sound_call .sub1
	stereo_panning TRUE, TRUE
	volume_envelope 1, 4
	note A_, 4
	sound_call .sub2
	stereo_panning TRUE, TRUE
	note_type 12, 1, 4
	note A#, 11
	note_type 6, 1, 4
	rest 2
	octave 5
	note C_, 4
	note C#, 4
	note C#, 4
	rest 4
	note C_, 4
	sound_call .sub3
	stereo_panning TRUE, TRUE
	volume_envelope 1, 4
	note A#, 4
	sound_call .sub3
	stereo_panning TRUE, TRUE
	volume_envelope 1, 4
	note G_, 4
	sound_call .sub8
	stereo_panning TRUE, TRUE
	volume_envelope 1, 4
	note A#, 14
	pitch_slide 1, 5, C#
	note A#, 2
	octave 5
	note C#, 16
	note_type 12, 1, 4
	note C_, 13
	rest 1
	volume_envelope 1, 21
	note A_, 1
	note A#, 1
	sound_jump .mainloop

.sub1:
	stereo_panning FALSE, TRUE
	volume_envelope 2, 5
	octave 4
	note A_, 2
	volume_envelope 3, 5
	note A_, 2
	sound_ret

.sub2:
	stereo_panning FALSE, TRUE
	volume_envelope 2, 5
	octave 4
	note F_, 2
	volume_envelope 3, 5
	note F_, 2
	sound_ret

.sub3:
	stereo_panning FALSE, TRUE
	volume_envelope 2, 5
	octave 4
	note G_, 2
	volume_envelope 3, 5
	note G_, 2
	sound_ret

.sub4:
	stereo_panning FALSE, TRUE
	volume_envelope 2, 5
	octave 5
	note C_, 2
	volume_envelope 3, 5
	note C_, 2
	sound_ret

.sub5:
	stereo_panning FALSE, TRUE
	volume_envelope 2, 5
	octave 4
	note A#, 2
	volume_envelope 3, 5
	note A#, 2
	sound_ret

.sub6:
	stereo_panning TRUE, TRUE
	volume_envelope 1, 6
	octave 5
	note F_, 2
	volume_envelope 2, 6
	note F_, 2
	volume_envelope 1, 6
	note C_, 2
	volume_envelope 2, 6
	note F_, 2
	sound_ret

.sub7:
	volume_envelope 1, 6
	note E_, 3
	volume_envelope 2, 6
	note E_, 3
	volume_envelope 3, 6
	sound_ret

.sub8:
	stereo_panning FALSE, TRUE
	volume_envelope 2, 5
	octave 4
	note E_, 2
	volume_envelope 3, 5
	note E_, 2
	sound_ret

HRM_ViridianCity_Ch4:
_chan = 4
	toggle_noise 9
	drum_speed 3
	drum_note 4, 2
	drum_note 4, 2
	drum_note 4, 2
	drum_note 4, 2
	drum_note 5, 8
.mainloop:
	sound_call .sub1
	sound_call .sub2
	sound_call .sub1
	drum_note 4, 8
	drum_note 2, 8
	drum_note 2, 8
	drum_note 4, 8
	drum_note 2, 8
	drum_note 5, 8
	drum_note 5, 8
	drum_note 4, 8
	sound_call .sub1
	sound_call .sub2
	sound_call .sub1
	drum_note 4, 8
	drum_note 2, 8
	drum_note 2, 8
	drum_note 4, 8
	drum_note 5, 4
	drum_note 5, 4
	drum_note 4, 8
	drum_note 5, 8
	drum_note 4, 8
	sound_call .sub3
	sound_call .sub4
	sound_call .sub3
	sound_call .sub5
	sound_call .sub3
	sound_call .sub4
	sound_call .sub3
	sound_call .sub6
	drum_note 4, 8
	drum_note 2, 8
	drum_note 5, 8
	drum_note 4, 8
	drum_note 4, 8
	drum_note 4, 8
	drum_note 5, 8
	drum_note 4, 8
	drum_note 4, 8
	drum_note 2, 8
	drum_note 5, 8
	drum_note 4, 8
	drum_note 2, 8
	drum_note 4, 8
	drum_note 5, 8
	drum_note 4, 8
	sound_call .sub3
	sound_call .sub5
	sound_call .sub3
	drum_note 4, 8
	drum_note 2, 8
	drum_note 5, 8
	drum_note 4, 8
	drum_note 4, 8
	drum_note 4, 8
	drum_note 5, 8
	drum_note 12, 8
	sound_call .sub3
	sound_call .sub6
	sound_jump .mainloop

.sub1:
.sub1loop1:
	drum_note 4, 8
	drum_note 2, 8
	drum_note 2, 8
	drum_note 4, 8
	drum_note 2, 8
	drum_note 4, 2
	drum_note 7, 2
	drum_note 7, 2
	drum_note 7, 2
	drum_note 5, 8
	drum_note 4, 8
	sound_loop 3, .sub1loop1
	sound_ret

.sub2:
	drum_note 4, 8
	drum_note 2, 8
	drum_note 2, 8
	drum_note 4, 8
	drum_note 4, 8
	drum_note 4, 8
	drum_note 5, 8
	drum_note 4, 8
	sound_ret

.sub3:
	drum_note 4, 8
	drum_note 2, 8
	drum_note 5, 8
	drum_note 4, 8
	drum_note 4, 8
	drum_note 2, 8
	drum_note 5, 8
	drum_note 2, 8
	sound_ret

.sub4:
	drum_note 4, 8
	drum_note 2, 8
	drum_note 5, 8
	drum_note 4, 8
	drum_note 4, 8
	drum_note 2, 8
	drum_note 5, 8
	drum_note 12, 8
	sound_ret

.sub5:
	drum_note 4, 8
	drum_note 2, 8
	drum_note 5, 8
	drum_note 4, 8
	drum_note 4, 7
	drum_note 7, 1
	drum_note 5, 8
	drum_note 5, 8
	drum_note 12, 8
	sound_ret

.sub6:
	drum_note 4, 8
	drum_note 2, 8
	drum_note 5, 8
	drum_note 4, 7
	drum_note 7, 1
	drum_note 5, 8
	drum_note 4, 8
	drum_note 5, 8
	drum_note 7, 8
	sound_ret


